# xmcd
#
# Track frame offsets: 
#        150
#        23813
#        45788
#        62170
#        81328
#        104120
#        108592
#        131797
#        152235
#        171250
#
# Disc length: 2656 seconds
#
# Revision: 1
# Processed by: cddbd v1.5.2PL0 Copyright (c) Steve Scherf et al.
# Submitted via: ExactAudioCopy v1.0b3
#
DISCID=870a5e0a
DTITLE=佐藤隆 - 土曜の夜と日曜の朝 SHM-CD TOCT-95190
DYEAR=1985
DGENRE=JPop
TTITLE0=12番街のキャロル
TTITLE1=桃色吐息
TTITLE2=オルフェ 
TTITLE3=カルメン
TTITLE4=僕達の孤独-マチルド- 
TTITLE5=ファンタンゴ 
TTITLE6=軽蔑 
TTITLE7=星はもうヴェールをまとい 
TTITLE8=クレタの迷路 
TTITLE9=霧のスカンジナビア
EXTD=
EXTT0=
EXTT1=
EXTT2=
EXTT3=
EXTT4=
EXTT5=
EXTT6=
EXTT7=
EXTT8=
EXTT9=
PLAYORDER=
